# xmcd
#
# Track frame offsets: 
#        150
#        16703
#        28721
#        47672
#        66999
#        101891
#        138167
#
# Disc length: 2106 seconds
#
# Revision: 1
# Processed by: cddbd v1.5.2PL0 Copyright (c) Steve Scherf et al.
# Submitted via: ExactAudioCopyFreeDBPlugin 1.0
#
DISCID=57083807
DTITLE=Supersuckers - Live At The Tractor Tavern
DYEAR=2004
DGENRE=Rock
TTITLE0=Creepy Jackalope Eye
TTITLE1=Doublewide
TTITLE2=Sail On
TTITLE3=Pretty Fucked Up
TTITLE4=Killer Weed
TTITLE5=Born With A Tail
TTITLE6=Alabama, Louisiana or Maybe Tennessee
EXTD=
EXTT0=
EXTT1=
EXTT2=
EXTT3=
EXTT4=
EXTT5=
EXTT6=
PLAYORDER=
